<?xml version="1.0" encoding="UTF-8"?><svg id="a" xmlns="http://www.w3.org/2000/svg" viewBox="0 0 256 256"><path id="b" d="M207.54,193.07c-4.24-9.89-9.07-19.04-14.34-27.15-5.55-8.52-11.6-15.94-17.98-22.06-6.9-6.56-14.21-11.65-21.8-15.16-4.99-2.3-10.1-3.9-15.29-4.8v-5.94c0-5.58-4.52-10.1-10.1-10.1s-10.13,4.52-10.13,10.1v5.94c-5.19.9-10.31,2.51-15.29,4.8-7.59,3.49-14.93,8.6-21.8,15.16-6.41,6.1-12.45,13.54-17.98,22.06-5.27,8.11-10.1,17.23-14.34,27.15-2.12,4.96.18,10.69,5.14,12.84,4.96,2.12,10.69-.15,12.84-5.11,7.67-17.9,17.31-32.68,27.87-42.75,7.59-7.26,15.5-11.99,23.61-14.13v15.91c0,5.48-4.03,7.62-5.89,8.76-.59.36-1.89,1.11-2.48,1.5-3.75,2.43-8.06,6.2-12.09,11.37-7.28,9.33-12.94,22.04-15.94,35.8-1.14,5.27,2.2,10.49,7.47,11.62,5.27,1.16,10.49-2.2,11.62-7.47,2.38-10.95,6.74-20.87,12.24-27.92,2.82-3.62,8.52-9.66,15.16-9.66s12.35,6.04,15.16,9.66c5.5,7.05,9.87,16.97,12.24,27.92,1.14,5.27,6.35,8.63,11.62,7.47,5.27-1.14,8.63-6.35,7.47-11.62-3-13.77-8.65-26.48-15.94-35.8-4.03-5.17-8.34-8.94-12.09-11.37-.62-.39-1.89-1.14-2.48-1.5-1.86-1.14-5.86-3.28-5.86-8.76v-15.91c8.11,2.14,16.02,6.87,23.61,14.13,10.57,10.07,20.2,24.85,27.87,42.75,2.12,4.96,7.88,7.26,12.84,5.11,4.88-2.12,7.16-7.88,5.04-12.84M136.65,30.84v63.21c0,3.33,2.4,8.16,7.62,9.27,11.73,2.51,25.14,9.35,37.25,19.35,11.88,9.82,23.04,22.68,33.17,38.28,2.94,4.52,8.99,5.81,13.51,2.87,2.89-1.89,4.44-5.01,4.44-8.21,0-1.83-.52-3.67-1.58-5.32-11.21-17.26-23.71-31.64-37.12-42.7-11.91-9.84-24.36-16.87-37.1-21.03v-22.45c18.34,5.04,37.43,15.45,53.89,29.55,4.11,3.51,10.28,3.02,13.77-1.06,3.51-4.11,3.05-10.28-1.06-13.79-10.51-9.02-22.5-17-34.64-23.12-10.72-5.4-21.44-9.33-31.98-11.75v-13.1c0-5.58-4.52-10.1-10.13-10.1-5.5-.03-10.05,4.49-10.05,10.1M109.19,20.72c-5.58,0-10.1,4.52-10.1,10.1v13.1c-10.54,2.4-21.26,6.35-31.98,11.75-12.14,6.12-24.13,14.13-34.64,23.12-4.11,3.51-4.57,9.69-1.06,13.79,3.51,4.11,9.69,4.57,13.79,1.06,16.46-14.1,35.57-24.52,53.89-29.55v22.45c-12.74,4.16-25.19,11.19-37.1,21.03-13.41,11.08-25.91,25.45-37.12,42.7-1.06,1.65-1.58,3.49-1.58,5.32,0,3.2,1.58,6.33,4.44,8.21,4.52,2.94,10.57,1.65,13.51-2.87,10.13-15.6,21.29-28.47,33.17-38.28,12.12-10,25.52-16.84,37.25-19.35,5.22-1.11,7.62-5.94,7.62-9.27V30.84c.03-5.61-4.49-10.13-10.1-10.13M256,128c0,70.68-57.3,128-128,128S0,198.68,0,128C-.03,57.3,57.3,0,128,0s128,57.3,128,128" style="fill:#c1272d; stroke-width:0px;"/></svg>